<svg xmlns="http://www.w3.org/2000/svg" width="475.126" height="475.127" viewBox="0 0 475.126 475.127"><path d="M452.062 155.449c-13.497-.863-27.116 2.456-40.472 3.89-41.386 4.446-83.233 7.665-108.476-30.768-20.58-31.333-27.953-66.401-28.954-103.331-.04-1.534-.34-2.89-.736-4.164.158-5.87-2.717-11.893-9.739-14.351-90.95-31.803-98.249 91.178-80.685 151.238-2.517.186-5.027.29-7.546.384-.102-2.595-.513-5.152-.879-7.727-.086-.551-.18-1.102-.269-1.655.046.143.036-.224-.03-1.241-.063-1.648-.432-3.22-.967-4.7-.208-4.093-2.029-8.181-6.102-11.187-38.499-28.478-85.297-32.669-131.098-22.841a14.11 14.11 0 0 0-4.957 2.085c-1.726.784-3.389 2.049-4.908 3.96-23.227 29.308-23.795 63.802-5.502 94.748-28.957 32.126-27.261 74.223 2.98 105.944-6.683 29.563 2.892 56.127 25.651 76.099-1.955 14.903-.609 29.767 7.482 43.143 9.265 15.314 26.497 23.287 43.43 26.837a13.825 13.825 0 0 0 4.783 1.722c29.26 4.793 58.592 8.597 88.22 10.019 1.44.071 2.729-.092 3.94-.355.734-.025 1.458-.025 2.232-.152 38.506-6.413 77.013-12.969 115.128-21.429 36.043-8.003 71.294-20.556 108.084-24.766 15.473-1.777 50.922.473 51.258-22.271 1.117-74.916 1.188-149.831 1.193-224.749 0-1.76-.33-3.293-.803-4.723-4.5-13.595-5.592-18.592-22.258-19.659zm-68.726 248.458c-61.794 19.51-125.38 30.59-189.177 41.233-.297-.03-.556-.111-.863-.127-26.515-1.27-52.732-4.489-78.922-8.739-1.196-.625-2.514-1.158-4.093-1.452-10.557-1.96-22.239-4.941-28.782-14.249-6.37-9.069-5.136-21.028-2.869-31.22 1.643-7.403-2.102-12.994-7.322-15.812-.516-.513-1.003-1.031-1.618-1.493-19.464-14.716-23.439-35.175-16.036-57.614 2.531-7.673-1.32-13.411-6.941-15.985-24.372-23.791-24.679-51.78.889-75.233 3.567-3.27 4.763-7.065 4.4-10.663.795-3.105.323-6.622-2.168-10.199-14.378-20.652-20.296-44.905-4.057-66.25 35.49-7.208 69.99-3.775 100.326 15.77.157 1.219.34 2.435.51 3.656.089.551.183 1.102.272 1.653-.033-.104-.038.122 0 .666-9.422-.676-18.85-1.866-28.277-3.669-17.981-3.438-25.651 24.064-7.586 27.518 37.973 7.259 75.642 7.243 113.419-1.191 17.958-4.009 10.341-31.522-7.586-27.518-1.742.388-3.491.675-5.233 1.023-11.362-35.297-20.185-131.207 34.251-122.379 3.931 81.793 40.984 162.543 129.712 158.608-5.469 71.409 1 142.302 9.526 213.288-.586.119-1.154.18-1.775.378zm62.165-10.293a18005.73 18005.73 0 0 0-32.764 2.138c-8.135-68.872-13.984-137.689-8.516-206.991 14.076-1.79 28.183-2.976 42.355-3.13-.003 69.329-.135 138.659-1.075 207.983z"/></svg>